<svg width="28" height="28" viewBox="0 0 28 28" fill="none" xmlns="http://www.w3.org/2000/svg">
<path d="M8.29867 2.1387C8.47328 1.62129 8.95849 1.27295 9.50457 1.27295H17.4999L9.20122 25.8618C9.02659 26.3792 8.54138 26.7275 7.99532 26.7275H1.77274C0.902028 26.7275 0.288408 25.8727 0.566845 25.0478L8.29867 2.1387Z" fill="url(#paint0_linear_237_37737)"/>
<path d="M21.0802 17.8184H8.47953C7.95008 17.8184 7.69446 18.4669 8.08151 18.8281L16.1783 26.3851C16.414 26.6051 16.7243 26.7275 17.0467 26.7275H24.1814L21.0802 17.8184Z" fill="#0078D4"/>
<path d="M9.50457 1.27295C8.95849 1.27295 8.47328 1.62129 8.29867 2.1387L0.566845 25.0478C0.288408 25.8727 0.902028 26.7275 1.77274 26.7275H7.99532C8.54138 26.7275 9.02659 26.3792 9.20122 25.8618L10.7383 21.3073L16.1785 26.3848C16.4141 26.6049 16.7245 26.7272 17.0469 26.7272H24.1816L21.0803 17.8181H11.916L17.4999 1.27295H9.50457Z" fill="url(#paint1_linear_237_37737)"/>
<path d="M19.7012 2.13868C19.5266 1.62129 19.0415 1.27295 18.4953 1.27295H9.54541H9.58624C10.1323 1.27295 10.6175 1.62129 10.7921 2.13868L18.5239 25.0478C18.8024 25.8728 18.1887 26.7275 17.3181 26.7275H17.1818H26.2272C27.0978 26.7275 27.7115 25.8728 27.4331 25.0478L19.7012 2.13868Z" fill="url(#paint2_linear_237_37737)"/>
<defs>
<linearGradient id="paint0_linear_237_37737" x1="9.45009" y1="2.15402" x2="1.14818" y2="26.6799" gradientUnits="userSpaceOnUse">
<stop stop-color="#114A8B"/>
<stop offset="1" stop-color="#0669BC"/>
</linearGradient>
<linearGradient id="paint1_linear_237_37737" x1="16.0847" y1="17.821" x2="14.1663" y2="18.4697" gradientUnits="userSpaceOnUse">
<stop stop-opacity="0.3"/>
<stop offset="0.0711768" stop-opacity="0.2"/>
<stop offset="0.321031" stop-opacity="0.1"/>
<stop offset="0.623053" stop-opacity="0.05"/>
<stop offset="1" stop-opacity="0"/>
</linearGradient>
<linearGradient id="paint2_linear_237_37737" x1="14.7134" y1="2.15407" x2="23.8262" y2="26.4331" gradientUnits="userSpaceOnUse">
<stop stop-color="#3CCBF4"/>
<stop offset="1" stop-color="#2892DF"/>
</linearGradient>
</defs>
</svg>
