<svg width="64" height="64" viewBox="0 0 64 64" fill="none" xmlns="http://www.w3.org/2000/svg">
<g clip-path="url(#clip0_1150_548)">
<path d="M0 8C0 3.58172 3.58172 0 8 0H56C60.4183 0 64 3.58172 64 8V56C64 60.4183 60.4183 64 56 64H8C3.58172 64 0 60.4183 0 56V8Z" fill="#EA1B15"/>
<path d="M44.0001 15.9999H47.4371C47.7488 15.9999 48.0001 16.2513 48.0001 16.5631V25.4267C48.0001 25.7385 47.7588 25.9899 47.4472 25.9999H44.5631C44.2514 25.9999 44.0001 25.7485 44.0001 25.4368V22.8437L21.7656 44H27.437C27.7487 44 28 44.2514 28 44.5632V47.4368C28 47.7486 27.7487 48 27.437 48H16.563C16.2513 48 16 47.7486 16 47.4368V44L41.2032 19.9999H38.5631C38.2514 19.9999 38.0001 19.7485 38.0001 19.4367V16.5731C38.0001 16.2614 38.2514 16.01 38.5631 16.01L44.0001 15.9999ZM24 19.9999L33.4371 19.9899C33.7487 19.9899 34.0001 19.7384 34.0001 19.4267V16.5631C34.0001 16.2513 33.7487 15.9999 33.4471 15.9999H16.5831C16.2714 15.9999 16.0201 16.2513 16.0201 16.5631V25.4368C16.0201 25.7485 16.2714 25.9999 16.5831 25.9999H19.4471C19.7587 25.9999 20 25.7485 20 25.4368V19.9999H24ZM44.0001 44H32.563C32.2514 44 32 44.2514 32 44.5632V47.4368C32 47.7486 32.2514 48 32.563 48H47.4371C47.7488 48 48.0001 47.7486 48.0001 47.4368V38.5163C48.0001 38.2045 47.7488 37.9531 47.4371 37.9531H44.5631C44.2514 37.9531 44.0001 38.2045 44.0001 38.5163V44Z" fill="white"/>
</g>
<defs>
<clipPath id="clip0_1150_548">
<rect width="64" height="64" fill="white"/>
</clipPath>
</defs>
</svg>
